<svg width="1080" height="1080" viewBox="0 0 1080 1080" fill="none" xmlns="http://www.w3.org/2000/svg">
<path d="M210.599 26.1001C204.099 27.7001 193.299 34.0001 187.599 39.4001C178.499 48.2001 170.999 61.4001 167.599 74.5001C166.799 77.8001 138.999 243.2 105.899 442C47.5992 791.8 45.6992 803.9 45.6992 816.5C45.6992 831.6 47.5992 840.2 53.6992 852.7C58.3992 862.4 69.6992 874.3 77.9992 878.3C82.0992 880.3 183.499 903.9 466.499 968.6C834.999 1052.8 849.799 1056.1 857.299 1055.6C877.999 1054.4 897.399 1036.8 905.899 1011.3C907.899 1005.3 1024.2 287.3 1025.6 272.3C1026.9 258.2 1022.2 237.7 1014.9 225.3C1010 217.1 1000.1 207.6 992.699 204.1C984.099 200 233.199 26.0001 221.999 25.4001C217.899 25.2001 212.799 25.5001 210.599 26.1001Z" fill="black"/>
</svg>
