<svg width="1080" height="1080" viewBox="0 0 1080 1080" fill="none" xmlns="http://www.w3.org/2000/svg">
<path d="M231.001 23.9001C222.801 26.5001 216.401 32.7001 211.901 42.4001C207.701 51.4001 206.001 59.2001 205.401 71.5001C204.701 85.8001 224.601 800.5 226.001 813.1C227.601 827.2 231.301 840 237.601 852.8C241.901 861.7 244.501 865.6 249.901 871.3C253.701 875.3 258.801 879.5 261.201 880.7C263.601 881.9 393.401 921.4 549.801 968.4C762.901 1032.6 835.301 1054 839.101 1054C845.401 1054 850.401 1051.5 855.701 1045.7C864.101 1036.6 867.901 1024.9 868.601 1005.5C869.501 984.4 846.201 274.3 844.401 264C840.701 243.3 831.601 223.7 820.501 212.5C816.701 208.6 811.801 204.6 809.801 203.6C804.101 201 241.901 24.1001 237.401 23.6001C235.301 23.3001 232.401 23.4001 231.001 23.9001Z" fill="black"/>
</svg>
