<svg width="1080" height="1080" viewBox="0 0 1080 1080" fill="none" xmlns="http://www.w3.org/2000/svg">
<path d="M223.5 26.1C204.2 30 184.5 49.1 176.9 71.3C175.4 75.9 140.9 238.4 98.3 441.5L22.5 803.5V819.5C22.6 834.4 22.8 836.1 25.4 843.5C26.9 847.9 29.6 854 31.3 857C35.8 865 45.3 874.1 53 877.8C62.3 882.3 833.2 1056 843.8 1056C867.1 1056 890.4 1036.1 899.3 1008.5C900.2 1005.7 934.4 840.1 975.2 640.5L1049.5 277.5V263C1049.5 250.6 1049.2 247.4 1047.2 241C1041.8 224 1031.6 210.3 1019.4 204.2C1014.7 201.8 1002.7 198.7 966.9 190.6C580.8 103 238.4 25.8 234 25.5C231 25.3 226.3 25.6 223.5 26.1Z" fill="black"/>
</svg>
