<svg width="1080" height="1080" viewBox="0 0 1080 1080" fill="none" xmlns="http://www.w3.org/2000/svg">
<path d="M204.899 25.9999C188.499 30.8999 172.899 49.0999 167.599 69.4999C166.699 72.7999 146.199 240 121.899 441C82.0994 771.4 77.8994 807.5 78.3994 817C79.7994 845.6 92.9994 869.3 112.899 879C116.999 881.1 213.299 904.2 485.999 968.6C795.199 1041.6 854.599 1055.4 860.599 1055.3C880.799 1055.3 900.299 1036 906.999 1009.5C908.299 1004.3 923.699 874 950.599 640.5C989.799 299.6 992.099 278.8 991.699 266.5C991.099 251.7 988.999 242.9 983.399 231.6C976.399 217.7 966.299 207.4 955.499 203.1C952.799 202 786.499 161.4 586.099 113C202.199 20.2999 214.399 23.0999 204.899 25.9999Z" fill="black"/>
</svg>
