<?xml version="1.0" standalone="no"?>
<!DOCTYPE svg PUBLIC "-//W3C//DTD SVG 20010904//EN"
 "http://www.w3.org/TR/2001/REC-SVG-20010904/DTD/svg10.dtd">
<svg version="1.0" xmlns="http://www.w3.org/2000/svg"
 width="1080.000000pt" height="1080.000000pt" viewBox="0 0 1080.000000 1080.000000"
 preserveAspectRatio="xMidYMid meet">
<metadata>
Created by potrace 1.16, written by Peter Selinger 2001-2019
</metadata>
<g transform="translate(0.000000,1080.000000) scale(0.100000,-0.100000)"
fill="#000000" stroke="none">
<path d="M2369 10526 c-183 -51 -365 -229 -448 -438 -16 -40 -435 -1711 -932
-3713 -898 -3622 -902 -3641 -907 -3760 -3 -98 0 -136 17 -207 27 -113 77
-211 145 -285 107 -116 -253 -27 4038 -999 2125 -482 3891 -880 3926 -886 234
-40 521 165 631 452 22 57 1672 6799 1787 7300 61 269 4 532 -150 686 -34 34
-86 74 -116 89 -42 21 -879 213 -3931 901 -4123 929 -3944 891 -4060 860z"/>
</g>
</svg>
