<?xml version="1.0" standalone="no"?>
<!DOCTYPE svg PUBLIC "-//W3C//DTD SVG 20010904//EN"
 "http://www.w3.org/TR/2001/REC-SVG-20010904/DTD/svg10.dtd">
<svg version="1.0" xmlns="http://www.w3.org/2000/svg"
 width="1080.000000pt" height="1080.000000pt" viewBox="0 0 1080.000000 1080.000000"
 preserveAspectRatio="xMidYMid meet">
<metadata>
Created by potrace 1.16, written by Peter Selinger 2001-2019
</metadata>
<g transform="translate(0.000000,1080.000000) scale(0.100000,-0.100000)"
fill="#000000" stroke="none">
<path d="M2139 10546 c-113 -40 -211 -168 -259 -338 -16 -57 -23 -121 -30
-288 -5 -118 -44 -1789 -87 -3714 -65 -2946 -75 -3514 -65 -3594 15 -118 69
-283 125 -381 54 -96 155 -199 227 -233 30 -14 1484 -411 3230 -883 2628 -711
3186 -859 3240 -859 54 -1 74 4 118 28 125 70 211 215 242 413 15 94 141 7340
130 7432 -20 151 -66 292 -136 411 -45 78 -152 187 -214 218 -25 13 -1471 423
-3215 912 -2342 658 -3183 890 -3220 890 -27 -1 -66 -7 -86 -14z"/>
</g>
</svg>
