<?xml version="1.0" standalone="no"?>
<!DOCTYPE svg PUBLIC "-//W3C//DTD SVG 20010904//EN"
 "http://www.w3.org/TR/2001/REC-SVG-20010904/DTD/svg10.dtd">
<svg version="1.0" xmlns="http://www.w3.org/2000/svg"
 width="1080.000000pt" height="1080.000000pt" viewBox="0 0 1080.000000 1080.000000"
 preserveAspectRatio="xMidYMid meet">
<metadata>
Created by potrace 1.16, written by Peter Selinger 2001-2019
</metadata>
<g transform="translate(0.000000,1080.000000) scale(0.100000,-0.100000)"
fill="#000000" stroke="none">
<path d="M2153 10535 c-192 -54 -359 -224 -434 -442 -10 -31 -328 -1697 -706
-3702 -684 -3629 -687 -3647 -686 -3771 0 -150 22 -241 85 -363 54 -103 140
-192 229 -236 54 -26 692 -173 3934 -907 3738 -846 3873 -876 3952 -872 72 4
93 10 168 47 145 72 259 203 324 371 25 64 150 732 697 3716 456 2489 669
3669 672 3732 8 155 -29 316 -100 440 -46 81 -140 172 -218 210 -54 27 -694
176 -3900 908 -2217 507 -3862 878 -3900 880 -39 2 -86 -2 -117 -11z"/>
</g>
</svg>
