<?xml version="1.0" standalone="no"?>
<!DOCTYPE svg PUBLIC "-//W3C//DTD SVG 20010904//EN"
 "http://www.w3.org/TR/2001/REC-SVG-20010904/DTD/svg10.dtd">
<svg version="1.0" xmlns="http://www.w3.org/2000/svg"
 width="1080.000000pt" height="1080.000000pt" viewBox="0 0 1080.000000 1080.000000"
 preserveAspectRatio="xMidYMid meet">
<metadata>
Created by potrace 1.16, written by Peter Selinger 2001-2019
</metadata>
<g transform="translate(0.000000,1080.000000) scale(0.100000,-0.100000)"
fill="#000000" stroke="none">
<path d="M3389 10563 c-20 -23 -17 -230 5 -358 25 -148 1591 -7456 1633 -7620
48 -190 114 -379 173 -501 l49 -100 1046 -855 c575 -470 1052 -855 1059 -857
7 -2 19 5 26 14 19 22 16 187 -5 329 -19 129 -1581 7395 -1626 7565 -78 295
-176 535 -246 602 -67 64 -2086 1798 -2093 1798 -4 0 -14 -7 -21 -17z"/>
</g>
</svg>
