<?xml version="1.0" standalone="no"?>
<!DOCTYPE svg PUBLIC "-//W3C//DTD SVG 20010904//EN"
 "http://www.w3.org/TR/2001/REC-SVG-20010904/DTD/svg10.dtd">
<svg version="1.0" xmlns="http://www.w3.org/2000/svg"
 width="1080px" height="1080px" viewBox="0 0 1080.000000 1080.000000"
 preserveAspectRatio="xMidYMid meet">
<metadata>
Created by potrace 1.16, written by Peter Selinger 2001-2019
</metadata>
<g transform="translate(0.000000,1080.000000) scale(0.100000,-0.100000)"
fill="#000000" stroke="none">
<path d="M2110 10551 c-187 -61 -313 -266 -334 -541 -4 -47 -83 -1709 -177
-3695 -168 -3543 -171 -3612 -156 -3720 38 -273 174 -507 347 -595 19 -10
1543 -408 3385 -885 3039 -787 3355 -867 3407 -862 204 18 360 243 383 552 19
253 306 7176 301 7275 -6 150 -34 257 -102 398 -44 91 -67 126 -122 181 -37
38 -90 80 -119 94 -75 39 -6637 1797 -6723 1803 -36 2 -76 0 -90 -5z"/>
</g>
</svg>
