<?xml version="1.0" standalone="no"?>
<!DOCTYPE svg PUBLIC "-//W3C//DTD SVG 20010904//EN"
 "http://www.w3.org/TR/2001/REC-SVG-20010904/DTD/svg10.dtd">
<svg version="1.0" xmlns="http://www.w3.org/2000/svg"
 width="1080.000000pt" height="1080.000000pt" viewBox="0 0 1080.000000 1080.000000"
 preserveAspectRatio="xMidYMid meet">
<metadata>
Created by potrace 1.16, written by Peter Selinger 2001-2019
</metadata>
<g transform="translate(0.000000,1080.000000) scale(0.100000,-0.100000)"
fill="#000000" stroke="none">
<path d="M2375 10551 c-111 -51 -184 -201 -200 -413 -4 -54 61 -1352 190
-3768 201 -3799 198 -3752 246 -3915 58 -200 183 -396 293 -459 59 -34 5352
-1736 5399 -1736 82 0 155 60 206 170 34 73 61 210 61 309 0 126 -410 7316
-421 7376 -53 299 -186 554 -333 640 -52 30 -5338 1815 -5374 1815 -15 0 -45
-9 -67 -19z"/>
</g>
</svg>
