<?xml version="1.0" standalone="no"?>
<!DOCTYPE svg PUBLIC "-//W3C//DTD SVG 20010904//EN"
 "http://www.w3.org/TR/2001/REC-SVG-20010904/DTD/svg10.dtd">
<svg version="1.0" xmlns="http://www.w3.org/2000/svg"
 width="1080.000000pt" height="1080.000000pt" viewBox="0 0 1080.000000 1080.000000"
 preserveAspectRatio="xMidYMid meet">
<metadata>
Created by potrace 1.16, written by Peter Selinger 2001-2019
</metadata>
<g transform="translate(0.000000,1080.000000) scale(0.100000,-0.100000)"
fill="#000000" stroke="none">
<path d="M3784 10510 c3 -41 23 -151 45 -245 51 -223 1916 -7600 1976 -7815
25 -91 68 -232 95 -314 l50 -149 523 -859 c586 -964 554 -924 493 -628 -42
203 -1913 7600 -1990 7865 -107 371 -71 301 -657 1302 -293 499 -534 910 -537
913 -3 3 -2 -29 2 -70z"/>
</g>
</svg>
