<?xml version="1.0" standalone="no"?>
<!DOCTYPE svg PUBLIC "-//W3C//DTD SVG 20010904//EN"
 "http://www.w3.org/TR/2001/REC-SVG-20010904/DTD/svg10.dtd">
<svg version="1.0" xmlns="http://www.w3.org/2000/svg"
 width="1080.000000pt" height="1080.000000pt" viewBox="0 0 1080.000000 1080.000000"
 preserveAspectRatio="xMidYMid meet">
<metadata>
Created by potrace 1.16, written by Peter Selinger 2001-2019
</metadata>
<g transform="translate(0.000000,1080.000000) scale(0.100000,-0.100000)"
fill="#000000" stroke="none">
<path d="M3574 10554 c-8 -33 10 -192 41 -349 47 -243 1769 -7576 1820 -7755
55 -190 116 -365 153 -435 23 -46 1577 -1740 1595 -1740 29 0 16 159 -33 400
-34 168 -1717 7340 -1761 7505 -47 177 -146 468 -182 537 -24 46 -238 297
-821 963 -434 495 -792 900 -797 900 -5 0 -12 -12 -15 -26z"/>
</g>
</svg>
