<svg width="1080" height="1080" viewBox="0 0 1080 1080" fill="none" xmlns="http://www.w3.org/2000/svg">
<path d="M206.801 25.4999C195.801 29.0999 185.401 38.8999 179.401 51.4999C172.301 66.2999 174.101 45.1999 146.101 436C131.801 634.8 119.901 800 119.601 803C119.301 806 119.501 812.9 120.101 818.3C123.001 846.4 136.501 870.1 155.001 879.5C157.901 881 290.701 914.6 507.001 968.5C832.601 1049.8 854.801 1055.2 861.001 1054.8C881.801 1053.3 898.601 1031.6 902.101 1001.7C902.601 996.6 913.901 831.2 927.101 634C944.501 374.1 950.901 273.3 950.401 267.5C948.101 239.4 934.001 213.6 915.801 204.4C909.601 201.3 225.801 24.9999 217.501 24.3999C213.801 24.1999 209.701 24.5999 206.801 25.4999Z" fill="black"/>
</svg>
