<?xml version="1.0" standalone="no"?>
<!DOCTYPE svg PUBLIC "-//W3C//DTD SVG 20010904//EN"
 "http://www.w3.org/TR/2001/REC-SVG-20010904/DTD/svg10.dtd">
<svg version="1.0" xmlns="http://www.w3.org/2000/svg"
 width="1080.000000pt" height="1080.000000pt" viewBox="0 0 1080.000000 1080.000000"
 preserveAspectRatio="xMidYMid meet">
<metadata>
Created by potrace 1.16, written by Peter Selinger 2001-2019
</metadata>
<g transform="translate(0.000000,1080.000000) scale(0.100000,-0.100000)"
fill="#000000" stroke="none">
<path d="M2310 10561 c-82 -26 -146 -88 -191 -185 -42 -90 -59 -168 -65 -291
-7 -143 192 -7290 206 -7416 16 -141 53 -269 116 -397 43 -89 69 -128 123
-185 38 -40 89 -82 113 -94 24 -12 1322 -407 2886 -877 2131 -642 2855 -856
2893 -856 63 0 113 25 166 83 84 91 122 208 129 402 9 211 -224 7312 -242
7415 -37 207 -128 403 -239 515 -38 39 -87 79 -107 89 -57 26 -5679 1795
-5724 1800 -21 3 -50 2 -64 -3z"/>
</g>
</svg>
