<svg width="1080" height="1080" viewBox="0 0 1080 1080" fill="none" xmlns="http://www.w3.org/2000/svg">
<path d="M218.2 26.0998C208.3 30.9998 200.3 43.0998 196.4 58.9998C194.6 66.1998 194.5 74.8998 194.9 304C195.1 434.6 195.6 603.8 196 680C196.7 815.1 196.8 818.7 198.8 827.1C201.3 837.8 205.5 848.7 210.4 857.5C215.5 866.4 225.8 877.3 232.3 880.4C235.2 881.8 373.2 921.4 539 968.6C763.1 1032.2 841.9 1054.2 846 1054.3C857.9 1054.5 868.9 1044.7 874.9 1028.7C880.4 1013.6 880.3 1037.3 877.6 650.5C876.2 455.2 874.9 289.2 874.6 281.5C873.9 260.9 870.5 246.9 862.4 231C856.8 220.1 850 211.6 842.8 206.7C837.7 203.1 815.9 196.5 535.4 113.4C293.9 41.8998 232.5 23.9998 228 23.9998C224.4 23.9998 221 24.6998 218.2 26.0998Z" fill="black"/>
</svg>
