<?xml version="1.0" standalone="no"?>
<!DOCTYPE svg PUBLIC "-//W3C//DTD SVG 20010904//EN"
 "http://www.w3.org/TR/2001/REC-SVG-20010904/DTD/svg10.dtd">
<svg version="1.0" xmlns="http://www.w3.org/2000/svg"
 width="1080.000000pt" height="1080.000000pt" viewBox="0 0 1080.000000 1080.000000"
 preserveAspectRatio="xMidYMid meet">
<metadata>
Created by potrace 1.16, written by Peter Selinger 2001-2019
</metadata>
<g transform="translate(0.000000,1080.000000) scale(0.100000,-0.100000)"
fill="#000000" stroke="none">
<path d="M2068 10545 c-110 -36 -214 -134 -274 -260 -71 -148 -53 63 -333
-3845 -143 -1988 -262 -3640 -265 -3670 -3 -30 -1 -99 5 -153 29 -281 164
-518 349 -612 29 -15 1357 -351 3520 -890 3256 -813 3478 -867 3540 -863 208
15 376 232 411 531 5 51 118 1705 250 3677 174 2599 238 3607 233 3665 -23
281 -164 539 -346 631 -62 31 -6900 1794 -6983 1800 -37 2 -78 -2 -107 -11z"/>
</g>
</svg>
