<?xml version="1.0" standalone="no"?>
<!DOCTYPE svg PUBLIC "-//W3C//DTD SVG 20010904//EN"
 "http://www.w3.org/TR/2001/REC-SVG-20010904/DTD/svg10.dtd">
<svg version="1.0" xmlns="http://www.w3.org/2000/svg"
 width="1080.000000pt" height="1080.000000pt" viewBox="0 0 1080.000000 1080.000000"
 preserveAspectRatio="xMidYMid meet">
<metadata>
Created by potrace 1.16, written by Peter Selinger 2001-2019
</metadata>
<g transform="translate(0.000000,1080.000000) scale(0.100000,-0.100000)"
fill="#000000" stroke="none">
<path d="M2888 10564 c-32 -17 -63 -80 -79 -161 -30 -160 -38 -101 540 -3978
297 -1996 552 -3688 566 -3758 53 -272 169 -550 269 -650 48 -47 157 -100
1831 -897 979 -466 1793 -850 1808 -854 24 -6 34 -1 62 27 19 19 38 52 45 76
21 78 29 209 20 319 -15 190 -1107 7380 -1140 7507 -67 261 -178 492 -270 563
-31 23 -3561 1801 -3599 1812 -18 5 -36 3 -53 -6z"/>
</g>
</svg>
