<svg width="1080" height="1080" viewBox="0 0 1080 1080" fill="none" xmlns="http://www.w3.org/2000/svg">
<path d="M236.9 27.4002C218.6 32.5002 200.4 50.3002 192.1 71.2002C190.5 75.2002 148.6 242.3 98.9 442.5C9.10002 804.7 8.70003 806.6 8.20003 818.5C7.90003 828.3 8.20002 832.1 9.90003 839.2C12.6 850.5 17.6 860.3 24.4 867.7C35.1 879.3 -0.899951 870.4 428.2 967.6C640.7 1015.8 817.3 1055.6 820.8 1056.2C844.2 1060.2 872.9 1039.7 883.9 1011C886.1 1005.3 1051.1 331.1 1062.6 281C1068.7 254.1 1063 227.8 1047.6 212.4C1044.2 209 1039 205 1036 203.5C1031.8 201.4 948.1 182.2 642.9 113.4C230.6 20.5002 248.5 24.3002 236.9 27.4002Z" fill="black"/>
</svg>
