<?xml version="1.0" standalone="no"?>
<!DOCTYPE svg PUBLIC "-//W3C//DTD SVG 20010904//EN"
 "http://www.w3.org/TR/2001/REC-SVG-20010904/DTD/svg10.dtd">
<svg version="1.0" xmlns="http://www.w3.org/2000/svg"
 width="1080.000000pt" height="1080.000000pt" viewBox="0 0 1080.000000 1080.000000"
 preserveAspectRatio="xMidYMid meet">
<metadata>
Created by potrace 1.16, written by Peter Selinger 2001-2019
</metadata>
<g transform="translate(0.000000,1080.000000) scale(0.100000,-0.100000)"
fill="#000000" stroke="none">
<path d="M3205 10557 c-36 -56 -41 -197 -14 -397 18 -133 1439 -7469 1470
-7589 60 -233 166 -497 231 -573 38 -45 2616 -1730 2641 -1726 12 2 28 16 37
33 21 41 19 277 -4 410 -41 247 -1420 7305 -1452 7433 -60 246 -152 483 -222
578 -23 31 -352 264 -1333 944 -717 497 -1311 905 -1320 907 -11 3 -24 -5 -34
-20z"/>
</g>
</svg>
