<svg width="1080" height="1080" viewBox="0 0 1080 1080" fill="none" xmlns="http://www.w3.org/2000/svg">
<path d="M224.699 28.4C207.599 34.2 191.499 50.6 184.099 70C180.599 79.1 15.3992 799.5 13.9992 811.8C11.5992 833.1 18.4992 855.5 31.3992 868.5C35.4992 872.5 39.9992 875.8 44.0992 877.8C53.5992 882.2 826.299 1056.4 836.499 1056.3C847.399 1056.3 856.799 1052.8 867.799 1044.5C878.299 1036.6 888.899 1021.3 893.299 1007.5C894.199 1004.7 931.699 838.9 976.599 639L1058.3 275.5L1058.4 262C1058.4 250.8 1058 247.1 1056.2 240.5C1053 229.6 1047.7 219.9 1041.1 213.2C1029.8 201.7 1065.8 210.6 634.899 113.5C208.399 17.4 238.599 23.6 224.699 28.4Z" fill="black"/>
</svg>
