<?xml version="1.0" standalone="no"?>
<!DOCTYPE svg PUBLIC "-//W3C//DTD SVG 20010904//EN"
 "http://www.w3.org/TR/2001/REC-SVG-20010904/DTD/svg10.dtd">
<svg version="1.0" xmlns="http://www.w3.org/2000/svg"
 width="1080.000000pt" height="1080.000000pt" viewBox="0 0 1080.000000 1080.000000"
 preserveAspectRatio="xMidYMid meet">
<metadata>
Created by potrace 1.16, written by Peter Selinger 2001-2019
</metadata>
<g transform="translate(0.000000,1080.000000) scale(0.100000,-0.100000)"
fill="#000000" stroke="none">
<path d="M2247 10516 c-171 -58 -332 -222 -406 -416 -35 -91 -1687 -7295
-1701 -7418 -24 -213 45 -437 174 -567 41 -40 86 -73 127 -93 95 -44 7822
-1786 7924 -1785 109 0 203 35 313 118 105 79 211 232 255 370 9 28 384 1686
833 3685 l817 3635 1 135 c0 112 -4 149 -22 215 -32 109 -85 206 -151 273
-113 115 247 26 -4062 997 -4265 961 -3963 899 -4102 851z"/>
</g>
</svg>
