<svg width="1080" height="1080" viewBox="0 0 1080 1080" fill="none" xmlns="http://www.w3.org/2000/svg">
<path d="M215.3 26.5C196.1 31.9 179.4 48.9 171.9 70.7C170.9 73.8 139.1 240.4 101.3 440.9C32.8995 803.8 32.5995 805.6 32.6995 818C32.6995 833 34.8995 842.1 41.1995 854.3C46.5995 864.6 55.1995 873.5 64.0995 877.9C69.4995 880.5 133.3 895.2 457.5 968.6C831.3 1053.2 844.8 1056.2 852.7 1055.8C859.9 1055.4 862 1054.8 869.5 1051.1C884 1043.9 895.4 1030.8 901.9 1014C904.4 1007.6 916.9 940.8 971.6 642.4C1017.2 393.5 1038.5 275.5 1038.8 269.2C1039.6 253.7 1035.9 237.6 1028.8 225.2C1024.2 217.1 1014.8 208 1007 204.2C1001.6 201.5 937.6 186.6 617 113.4C395.3 62.7 230.8 25.6 227 25.4C223.1 25.2 218.4 25.6 215.3 26.5Z" fill="black"/>
</svg>
