<svg width="1080" height="1080" viewBox="0 0 1080 1080" fill="none" xmlns="http://www.w3.org/2000/svg">
<path d="M237.5 24.9C226.4 30 219.1 45 217.5 66.2C217.1 71.6 223.6 201.4 236.5 443C256.6 822.9 256.3 818.2 261.1 834.5C266.9 854.5 279.4 874.1 290.4 880.4C296.3 883.8 825.6 1054 830.3 1054C838.5 1054 845.8 1048 850.9 1037C854.3 1029.7 857 1016 857 1006.1C857 993.5 816 274.5 814.9 268.5C809.6 238.6 796.3 213.1 781.6 204.5C776.4 201.5 247.8 23 244.2 23C242.7 23 239.7 23.9 237.5 24.9Z" fill="black"/>
</svg>
