<svg width="1080" height="1080" viewBox="0 0 1080 1080" fill="none" xmlns="http://www.w3.org/2000/svg">
<path d="M248.499 24.1C237.799 30.3 232.299 43.3 231.399 64.5C230.699 80.9 286.799 805.2 289.999 820.9C295.799 849.4 309.699 874.4 323.799 881.9C328.699 884.5 817.699 1054 820.299 1054C827.199 1054 833.299 1049 837.499 1039.8C841.299 1031.4 842.999 1022 842.999 1008.2C842.999 990.4 785.699 281.8 782.999 267.3C777.999 240 765.399 214.5 751.999 205C747.699 201.9 260.399 23.8 254.999 23.3C252.499 23.1 249.599 23.5 248.499 24.1Z" fill="black"/>
</svg>
