<?xml version="1.0" standalone="no"?>
<!DOCTYPE svg PUBLIC "-//W3C//DTD SVG 20010904//EN"
 "http://www.w3.org/TR/2001/REC-SVG-20010904/DTD/svg10.dtd">
<svg version="1.0" xmlns="http://www.w3.org/2000/svg"
 width="1080.000000pt" height="1080.000000pt" viewBox="0 0 1080.000000 1080.000000"
 preserveAspectRatio="xMidYMid meet">
<metadata>
Created by potrace 1.16, written by Peter Selinger 2001-2019
</metadata>
<g transform="translate(0.000000,1080.000000) scale(0.100000,-0.100000)"
fill="#000000" stroke="none">
<path d="M2235 10539 c-193 -39 -390 -230 -466 -452 -15 -46 -360 -1671 -786
-3702 l-758 -3620 0 -160 c1 -149 3 -166 29 -240 15 -44 42 -105 59 -135 45
-80 140 -171 217 -208 93 -45 7802 -1782 7908 -1782 233 0 466 199 555 475 9
28 351 1684 759 3680 l743 3630 0 145 c0 124 -3 156 -23 220 -54 170 -156 307
-278 368 -47 24 -167 55 -525 136 -3861 876 -7285 1648 -7329 1651 -30 2 -77
-1 -105 -6z"/>
</g>
</svg>
