<svg width="1080" height="1080" viewBox="0 0 1080 1080" fill="none" xmlns="http://www.w3.org/2000/svg">
<path d="M271.001 26.8C268.501 29.3 266.701 32.4 265.601 36C263.101 44.4 261.701 58.5 262.501 68C264.201 89.4 355.201 808.4 357.501 819.3C363.401 846.4 375.701 872.3 386.301 880.4C389.601 882.9 790.901 1052.6 795.801 1053.6C802.101 1054.9 808.701 1046.5 811.101 1034C814.301 1018 815.101 1024.5 766.101 643.5C740.801 446 719.501 281.3 718.901 277.5C713.601 243.4 698.301 210.3 684.401 202.9C681.701 201.4 589.901 160.3 480.401 111.6C347.401 52.4 280.301 23 278.101 23C275.601 23 273.801 23.9 271.001 26.8Z" fill="black"/>
</svg>
