<svg width="1080" height="1080" viewBox="0 0 1080 1080" fill="none" xmlns="http://www.w3.org/2000/svg">
<path d="M206 25.5001C189.5 30.1001 176.7 45.0001 170.5 66.6001C168.3 74.5001 163.9 118 133 439C113.8 638.9 98 806.6 98 811.6C98 841.1 112.3 869.2 132.3 878.9C141.6 883.5 850.9 1055 860.3 1055C880.2 1055 897.5 1037.8 904.6 1011C905.4 1008 911.2 949.2 917.5 880.5C973.4 269.2 973.1 273.3 972 263.6C969.7 243.4 963.1 227.6 951.9 215.6C947.7 211.1 942.9 207.2 939.1 205.1C934 202.4 875.3 187.5 577.5 113.5C381.9 64.8001 219.5 24.8001 216.7 24.5001C213.6 24.2001 209.3 24.6001 206 25.5001Z" fill="black"/>
</svg>
