<svg width="1080" height="1080" viewBox="0 0 1080 1080" fill="none" xmlns="http://www.w3.org/2000/svg">
<path d="M211.001 24.9001C192.301 31.0001 179.701 51.5001 177.601 79.0001C177.201 83.7001 169.301 249.9 159.901 448.5C143.101 802.8 142.801 809.7 144.301 820.5C148.101 847.8 161.701 871.2 179.001 880C180.901 881 333.301 920.8 517.501 968.5C821.401 1047.2 853.001 1055.2 858.201 1054.7C878.601 1052.9 894.201 1030.4 896.501 999.5C898.401 974.2 927.101 281.9 926.601 272C926.001 257 923.201 246.3 916.401 232.2C912.001 223.1 909.701 219.6 904.201 214.1C900.501 210.3 895.201 206.1 892.301 204.7C884.801 200.8 228.601 25.0001 220.001 24.4001C216.401 24.2001 212.401 24.4001 211.001 24.9001Z" fill="black"/>
</svg>
