<?xml version="1.0" standalone="no"?>
<!DOCTYPE svg PUBLIC "-//W3C//DTD SVG 20010904//EN"
 "http://www.w3.org/TR/2001/REC-SVG-20010904/DTD/svg10.dtd">
<svg version="1.0" xmlns="http://www.w3.org/2000/svg"
 width="1080px" height="1080px" viewBox="0 0 1080.000000 1080.000000"
 preserveAspectRatio="xMidYMid meet">
<metadata>
Created by potrace 1.16, written by Peter Selinger 2001-2019
</metadata>
<g transform="translate(0.000000,1080.000000) scale(0.100000,-0.100000)"
fill="#000000" stroke="none">
<path d="M2485 10559 c-107 -62 -162 -192 -171 -404 -7 -164 554 -7407 586
-7564 58 -285 197 -535 338 -610 49 -26 4939 -1721 4965 -1721 69 0 130 50
172 142 38 84 55 178 55 316 0 178 -573 7264 -600 7409 -50 273 -176 528 -310
623 -43 31 -4916 1812 -4970 1817 -25 2 -54 -2 -65 -8z"/>
</g>
</svg>
