<svg width="1080" height="1080" viewBox="0 0 1080 1080" fill="none" xmlns="http://www.w3.org/2000/svg">
<path d="M338.9 23.7002C336.9 26.0002 337.2 46.7002 339.4 59.5002C341.9 74.3002 498.5 805.1 502.7 821.5C507.5 840.5 514.1 859.4 520 871.6L524.9 881.6L629.5 967.1C687 1014.1 734.7 1052.6 735.4 1052.8C736.1 1053 737.3 1052.3 738 1051.4C739.9 1049.2 739.6 1032.7 737.5 1018.5C735.6 1005.6 579.4 279 574.9 262C567.1 232.5 557.3 208.5 550.3 201.8C543.6 195.4 341.7 22.0002 341 22.0002C340.6 22.0002 339.6 22.7002 338.9 23.7002Z" fill="black"/>
</svg>
