<svg width="1080" height="1080" viewBox="0 0 1080 1080" fill="none" xmlns="http://www.w3.org/2000/svg">
<path d="M357.401 24.6C356.601 27.9 358.401 43.8 361.501 59.5C366.201 83.8 538.401 817.1 543.501 835C549.001 854 555.101 871.5 558.801 878.5C561.101 883.1 716.501 1052.5 718.301 1052.5C721.201 1052.5 719.901 1036.6 715.001 1012.5C711.601 995.7 543.301 278.5 538.901 262C534.201 244.3 524.301 215.2 520.701 208.3C518.301 203.7 496.901 178.6 438.601 112C395.201 62.5 359.401 22 358.901 22C358.401 22 357.701 23.2 357.401 24.6Z" fill="black"/>
</svg>
