<svg width="1080" height="1080" viewBox="0 0 1080 1080" fill="none" xmlns="http://www.w3.org/2000/svg">
<path d="M303.599 24.3C302.299 25.6 300.699 28.5 300.099 30.6C298.199 37.1 297.699 51.9 298.899 63C300.699 79.4 425.699 807 429.099 820.9C435.499 847 445.299 870 453.699 878.8C457.899 883.2 476.399 893.7 612.299 968.4C696.899 1014.9 767.199 1053 768.499 1053C771.199 1053 773.799 1050.8 775.199 1047.1C777.099 1042.1 777.899 1028 776.899 1016.2C775.499 999.2 651.099 281.9 645.999 261.6C639.799 236.9 630.399 215 622.199 206.2C619.499 203.3 577.799 178.6 464.499 112.7C379.799 63.5 309.499 22.9 308.299 22.6C306.599 22.1 305.399 22.5 303.599 24.3Z" fill="black"/>
</svg>
