<svg width="1080" height="1080" viewBox="0 0 1080 1080" fill="none" xmlns="http://www.w3.org/2000/svg">
<path d="M213.9 25.4003C202.6 29.4003 192.8 42.2003 188 59.2003C186.4 64.9003 185.7 71.3003 185 88.0003C184.5 99.8003 180.6 266.9 176.3 459.4C169.8 754 168.8 810.8 169.8 818.8C171.3 830.6 176.7 847.1 182.3 856.9C187.7 866.5 197.8 876.8 205 880.2C208 881.6 353.4 921.3 528 968.5C790.8 1039.6 846.6 1054.4 852 1054.4C857.4 1054.5 859.4 1054 863.8 1051.6C876.3 1044.6 884.9 1030.1 888 1010.3C889.5 1000.9 902.1 276.3 901 267.1C899 252 894.4 237.9 887.4 226C882.9 218.2 872.2 207.3 866 204.2C863.5 202.9 718.9 161.9 544.5 113C310.3 47.2003 226.2 24.0003 222.5 24.0003C219.8 24.1003 215.9 24.7003 213.9 25.4003Z" fill="black"/>
</svg>
