<svg width="1080" height="1080" viewBox="0 0 1080 1080" fill="none" xmlns="http://www.w3.org/2000/svg">
<path d="M259.4 24.8999C251.2 29.9999 246 45.6999 246 65.1999C246 74.8999 320.4 805.5 322.5 816.5C328.4 847.3 342.6 875.2 356 882C357.9 883 460.3 922.1 583.5 969C764.2 1037.7 808.1 1054.1 810.8 1053.6C818.1 1052.5 823.6 1045.1 826.6 1032.4C830.3 1017 830.8 1022.3 791.6 650C749.1 245.9 752.4 276.1 749.8 264.1C743.8 236 729.5 209.4 717.1 203.1C707.1 198 270 23.5999 266.5 23.2999C263.8 22.9999 261.5 23.4999 259.4 24.8999Z" fill="black"/>
</svg>
