<svg width="1080" height="1080" viewBox="0 0 1080 1080" fill="none" xmlns="http://www.w3.org/2000/svg">
<path d="M288.8 23.6002C285.6 25.3002 282.5 31.6002 280.9 39.7002C277.9 55.7002 277.1 49.8001 334.9 437.5C364.6 637.1 390.1 806.3 391.5 813.3C396.8 840.5 408.4 868.3 418.4 878.3C423.2 883 434.1 888.3 601.5 968C699.4 1014.6 780.8 1053 782.3 1053.4C784.7 1054 785.7 1053.5 788.5 1050.7C790.4 1048.8 792.3 1045.5 793 1043.1C795.1 1035.3 795.9 1022.2 795 1011.2C793.5 992.2 684.3 273.2 681 260.5C674.3 234.4 663.2 211.3 654 204.2C650.9 201.9 297.9 24.1002 294.1 23.0002C292.3 22.5002 290.5 22.7002 288.8 23.6002Z" fill="black"/>
</svg>
