<svg width="1080" height="1080" viewBox="0 0 1080 1080" fill="none" xmlns="http://www.w3.org/2000/svg">
<path d="M320.501 24.3001C316.901 29.9001 316.401 44.0001 319.101 64.0001C320.901 77.3001 463.001 810.9 466.101 822.9C472.101 846.2 482.701 872.6 489.201 880.2C493.001 884.7 750.801 1053.2 753.301 1052.8C754.501 1052.6 756.101 1051.2 757.001 1049.5C759.101 1045.4 758.901 1021.8 756.601 1008.5C752.501 983.8 614.601 278 611.401 265.2C605.401 240.6 596.201 216.9 589.201 207.4C586.901 204.3 554.001 181 455.901 113C384.201 63.3001 324.801 22.5001 323.901 22.3001C322.801 22.0001 321.501 22.8001 320.501 24.3001Z" fill="black"/>
</svg>
