<svg width="1080" height="1080" viewBox="0 0 1080 1080" fill="none" xmlns="http://www.w3.org/2000/svg">
<path d="M203.5 27.3001C186.9 33.5001 172.6 50.7001 167.1 71.1001C166 75.2001 141.6 241.8 112.9 441.5C70.2996 738.2 60.6996 806.4 60.7996 815C60.7996 843.5 74.0996 868.5 94.8996 879C97.5996 880.3 237.7 913.3 474.4 968.2C888 1064.2 859.5 1058.1 872 1053.2C887.4 1047.1 900.5 1031.6 906.9 1012C908.4 1007.4 924.1 896.6 959.6 640.5C1007.8 292.6 1010.2 275 1009.7 264.5C1009 250.9 1007.1 243.2 1001.4 231.2C995.5 218.9 986.7 209.4 976.6 204.5C970.5 201.6 916.4 188.6 596.2 113C290.3 40.9001 221.6 25.0001 216.2 25.1001C211.8 25.1001 207.4 25.9001 203.5 27.3001Z" fill="black"/>
</svg>
